<svg xmlns="http://www.w3.org/2000/svg" viewBox="0 0 381 381"><title>google family link logo</title><rect width="381" height="381" style="fill:none"/><path d="M537.66,577.23l-83.5,109.4h42.92a23.08,23.08,0,0,0,18.59-9l76.42-99.89-54.41-.5Z" transform="translate(-321.5 -321.5)" style="fill:#bdc1c6"/><path d="M359.14,607.25a22.26,22.26,0,0,0-18.26,9.09l-3.51,4.74,22.78,5.6,13.18,18.57,28-38Z" transform="translate(-321.5 -321.5)" style="fill:#bdc1c6"/><path d="M496.88,686.63a22.87,22.87,0,0,1-18.34-9.11l-44.89-60.58a23.43,23.43,0,0,0-18.34-9.68H361.19a22.92,22.92,0,0,1,18.34,9.17L424.41,677a23.37,23.37,0,0,0,18.34,9.62Z" transform="translate(-321.5 -321.5)" style="fill:#dadce0"/><path d="M361.21,476.22a23.32,23.32,0,0,1,1.87-7.9,23.57,23.57,0,0,1,5.73-8.06l127.28-116.7A23.4,23.4,0,0,1,512,337.38l7.9,71.5-7.9,55.5-63.42,16Z" transform="translate(-321.5 -321.5)" style="fill:#4285f4"/><path d="M662.75,476.22a23.32,23.32,0,0,0-1.87-7.9,23.57,23.57,0,0,0-5.73-8.06L527.88,343.57A23.38,23.38,0,0,0,512,337.38v127l71.76,16Z" transform="translate(-321.5 -321.5)" style="fill:#669df6"/><path d="M662.77,476.22h0l-73-6.39L512,464.38,504.06,512S512,558.18,512,559.63c0,1.07,31.71,7.74,31.71,7.74l58.14-2.26,12.07-15.72L658,492A23.31,23.31,0,0,0,662.77,476.22Z" transform="translate(-321.5 -321.5)" style="fill:#5bb974"/><path d="M361.23,476.22A23.4,23.4,0,0,0,366,492l44,57.43,12.07,15.72,50.07,2.64L512,559.63V464.38Z" transform="translate(-321.5 -321.5)" style="fill:#34a853"/><path d="M512,559.63c-4.54,0-89.87,5.5-89.87,5.5L493.33,658A23.35,23.35,0,0,0,512,667.16l8.06-67.77S513.89,559.63,512,559.63Z" transform="translate(-321.5 -321.5)" style="fill:#fbbc04"/><path d="M512,667.16A23.41,23.41,0,0,0,530.67,658l71.2-92.83L512,559.63Z" transform="translate(-321.5 -321.5)" style="fill:#fcc934"/></svg>